<svg id="Layer_1" data-name="Layer 1" xmlns="http://www.w3.org/2000/svg" viewBox="0 0 527.62 390.21"><defs><style>.cls-1,.cls-2{fill:#58595b;}.cls-2{font-size:18.92px;font-family:TTNorms-Light, TT Norms;}.cls-3{letter-spacing:-0.04em;}.cls-4{letter-spacing:-0.02em;}.cls-5{fill:#3e6db5;}</style></defs><title>logo</title><text x="-29.46" y="-117.18"></text><path class="cls-1" d="M518.19,399.13q-14,1.23-33.6,1.23c-6.43,0-27.47,3.4-33.1,10.27q10.93-.31,28.27-.32,26.23,0,38.89,1.13c8.44.75,38,39.4,38,39.4s.46-41.41.46-46.19L557,389.22h-24.8C526.53,394.68,521.27,398.86,518.19,399.13Z" transform="translate(-29.46 -117.18)"/><path class="cls-1" d="M480.68,300.37c20.65,4,48.33,1.19,56.63,3.5,1.67,5.78,19.77,37.87,19.77,37.87-.09-17.4-.09-56.56-.09-56.56-37.88.75-69.3,1.13-105.35,1.13C449.83,286.32,462.1,296.79,480.68,300.37Z" transform="translate(-29.46 -117.18)"/><path class="cls-1" d="M312.22,476.8a93.48,93.48,0,0,1-27-4,102.13,102.13,0,0,0,150-83.64H406A94,94,0,0,1,312.22,476.8Z" transform="translate(-29.46 -117.18)"/><path class="cls-1" d="M333.28,280.62a101.5,101.5,0,0,0-48.08,12,94.1,94.1,0,0,1,118.68,69h29.33A102.16,102.16,0,0,0,333.28,280.62Z" transform="translate(-29.46 -117.18)"/><path class="cls-1" d="M206,484.87a101.5,101.5,0,0,0,48.08-12A94.09,94.09,0,0,1,133.2,389.22H104.06A102.11,102.11,0,0,0,206,484.87Z" transform="translate(-29.46 -117.18)"/><path class="cls-1" d="M227,288.68a93.48,93.48,0,0,1,27,4,102.15,102.15,0,0,0-148,69h29.33A94.08,94.08,0,0,1,227,288.68Z" transform="translate(-29.46 -117.18)"/><text x="-29.46" y="-117.18"></text><text class="cls-2" transform="translate(74.6 263.95) scale(1.81 1)"><tspan xml:space="preserve">Cahaya  Dhuha  </tspan><tspan class="cls-3" x="132.69" y="0">F</tspan><tspan x="143.47" y="0">u</tspan><tspan class="cls-4" x="154.44" y="0">t</tspan><tspan x="160.68" y="0">sal</tspan></text><rect class="cls-5" x="239.96" y="272.04" width="3.73" height="118.17"/><rect class="cls-5" x="410.11" y="272.04" width="3.73" height="118.17"/><rect class="cls-5" x="57.76" y="272.04" width="3.73" height="118.17"/><rect class="cls-5" x="239.96" y="126.32" width="3.73" height="118.17"/><rect class="cls-5" x="410.11" y="126.32" width="3.73" height="118.17"/><rect class="cls-5" x="57.76" y="126.32" width="3.73" height="118.17"/></svg>